<svg width="24" height="22" viewBox="0 0 24 22" fill="none" xmlns="http://www.w3.org/2000/svg">
<path d="M11.5607 0.939096C12.1464 1.52488 12.1464 2.47463 11.5607 3.06042L5.12132 9.49975H22.5C23.3284 9.49975 24 10.1713 24 10.9998C24 11.8282 23.3284 12.4998 22.5 12.4998H5.12132L11.5607 18.9391C12.1464 19.5249 12.1464 20.4746 11.5607 21.0604C10.9749 21.6462 10.0251 21.6462 9.43934 21.0604L0.43934 12.0604C0.158035 11.7791 0 11.3976 0 10.9998C0 10.6019 0.158035 10.2204 0.43934 9.9391L9.43934 0.939096C10.0251 0.353309 10.9749 0.353309 11.5607 0.939096Z" fill="#142251"/>
</svg>
