<svg width="48" height="48" viewBox="0 0 48 48" fill="none" xmlns="http://www.w3.org/2000/svg">
<path fill-rule="evenodd" clip-rule="evenodd" d="M18 6C14.6863 6 12 8.68629 12 12V14L8 14.0001C5.79088 14.0001 4 15.7909 4 18V38C4 40.2091 5.79086 42 8 42H40C42.2091 42 44 40.2091 44 38V18C44 15.7909 42.2091 14 40 14H36V12C36 8.68629 33.3137 6 30 6H18ZM32 14V12C32 10.8954 31.1046 10 30 10H18C16.8954 10 16 10.8954 16 12V14L32 14ZM8 18V22H40V18H8ZM40 26H29.6586C28.8349 28.3304 26.6124 30 24 30C21.3876 30 19.1651 28.3304 18.3414 26H8V38H40V26Z" fill="#142251"/>
</svg>
