<svg width="32" height="40" viewBox="0 0 32 40" fill="none" xmlns="http://www.w3.org/2000/svg">
<path d="M8 2C8 0.89543 8.89543 0 10 0H22C23.1046 0 24 0.89543 24 2H28C30.2091 2 32 3.79086 32 6V36C32 38.2091 30.2091 40 28 40H4C1.79086 40 0 38.2091 0 36V6C0 3.79086 1.79086 2 4 2H8ZM8 6H4V36H28V6H24V8C24 9.10457 23.1046 10 22 10H10C8.89543 10 8 9.10457 8 8V6ZM20 4H12V6H20V4ZM23.4142 17.5858C24.1953 18.3668 24.1953 19.6332 23.4142 20.4142L15.4142 28.4142C14.6332 29.1953 13.3668 29.1953 12.5858 28.4142L8.58579 24.4142C7.80474 23.6332 7.80474 22.3668 8.58579 21.5858C9.36684 20.8047 10.6332 20.8047 11.4142 21.5858L14 24.1716L20.5858 17.5858C21.3668 16.8047 22.6332 16.8047 23.4142 17.5858Z" fill="#142251"/>
</svg>
