<svg width="48" height="48" viewBox="0 0 48 48" fill="none" xmlns="http://www.w3.org/2000/svg">
<path d="M35.0039 4.27018C35.6205 4.62802 36 5.28706 36 6V14C38.3695 14 40.5005 15.0327 41.9625 16.6662C43.2281 18.0802 44 19.9523 44 22C44 24.0477 43.2281 25.9198 41.9625 27.3338C40.5005 28.9673 38.3695 30 36 30V38C36 38.7129 35.6205 39.372 35.0039 39.7298C34.3872 40.0877 33.6267 40.0902 33.0077 39.7365L20 32.3035V42C20 43.1046 19.1046 44 18 44H10C8.89543 44 8 43.1046 8 42V32C5.79086 32 4 30.2091 4 28V16C4 13.7909 5.79086 12 8 12H19.4689L33.0077 4.26351C33.6267 3.9098 34.3872 3.91234 35.0039 4.27018ZM20 28C20.3481 28 20.6901 28.0908 20.9923 28.2635L32 34.5536V9.44636L20.9923 15.7365C20.6901 15.9092 20.3481 16 20 16H8V28H20ZM12 32V40H16V32H12ZM36 26C37.1845 26 38.2467 25.4877 38.9819 24.6662C39.6165 23.9572 40 23.0258 40 22C40 20.9742 39.6165 20.0428 38.9819 19.3338C38.2467 18.5123 37.1845 18 36 18V26Z" fill="#142251"/>
</svg>
