<svg width="1330" height="227" viewBox="0 0 1330 227" fill="none" xmlns="http://www.w3.org/2000/svg">
<circle cx="642" cy="59" r="4" fill="#142251"/>
<ellipse cx="651.505" cy="40.7128" rx="11.5" ry="8" transform="rotate(25.8444 651.505 40.7128)" fill="#AFB4C4"/>
<path d="M661.405 45.508C660.533 47.3078 658.673 48.4766 656.279 48.8548C653.888 49.2327 651.013 48.808 648.235 47.4626C645.458 46.1172 643.342 44.1247 642.156 42.0141C640.969 39.9015 640.733 37.7173 641.605 35.9176C642.477 34.1178 644.337 32.949 646.731 32.5707C649.122 32.1928 651.997 32.6175 654.774 33.9629C657.552 35.3083 659.667 37.3009 660.853 39.4115C662.04 41.524 662.276 43.7082 661.405 45.508Z" stroke="#142251" stroke-opacity="0.44"/>
<mask id="path-4-inside-1_0_2946" fill="white">
<path fill-rule="evenodd" clip-rule="evenodd" d="M660.814 34.1103L650.914 29.3151L646.681 38.0538C646.675 38.0657 646.669 38.0778 646.663 38.0899C646.657 38.102 646.652 38.1142 646.646 38.1264L646.461 38.5078L646.511 38.5319C646.167 40.1156 647.703 42.2045 650.196 43.4125C652.69 44.6204 655.281 44.53 656.311 43.2786L656.361 43.303L660.814 34.1103Z"/>
</mask>
<path fill-rule="evenodd" clip-rule="evenodd" d="M660.814 34.1103L650.914 29.3151L646.681 38.0538C646.675 38.0657 646.669 38.0778 646.663 38.0899C646.657 38.102 646.652 38.1142 646.646 38.1264L646.461 38.5078L646.511 38.5319C646.167 40.1156 647.703 42.2045 650.196 43.4125C652.69 44.6204 655.281 44.53 656.311 43.2786L656.361 43.303L660.814 34.1103Z" fill="#AFB4C4"/>
<path d="M650.914 29.3151L651.35 28.4151L650.45 27.9792L650.014 28.8792L650.914 29.3151ZM660.814 34.1103L661.714 34.5463L662.15 33.6463L661.25 33.2104L660.814 34.1103ZM646.681 38.0538L647.572 38.5081L647.577 38.499L647.581 38.4897L646.681 38.0538ZM646.646 38.1264L647.546 38.5623L647.551 38.5531L647.555 38.5437L646.646 38.1264ZM646.461 38.5078L645.561 38.0719L645.125 38.9718L646.025 39.4078L646.461 38.5078ZM646.511 38.5319L647.488 38.7439L647.655 37.9749L646.947 37.6319L646.511 38.5319ZM656.311 43.2786L656.747 42.3786L656.038 42.0356L655.538 42.6432L656.311 43.2786ZM656.361 43.303L655.925 44.203L656.825 44.6389L657.261 43.7389L656.361 43.303ZM650.478 30.2151L660.378 35.0103L661.25 33.2104L651.35 28.4151L650.478 30.2151ZM647.581 38.4897L651.814 29.7511L650.014 28.8792L645.781 37.6178L647.581 38.4897ZM647.563 38.5258C647.566 38.5199 647.569 38.514 647.572 38.5081L645.79 37.5994C645.781 37.6175 645.772 37.6357 645.763 37.654L647.563 38.5258ZM647.555 38.5437C647.558 38.5378 647.56 38.5318 647.563 38.5258L645.763 37.654C645.754 37.6723 645.746 37.6907 645.737 37.7091L647.555 38.5437ZM647.361 38.9437L647.546 38.5623L645.746 37.6905L645.561 38.0719L647.361 38.9437ZM646.947 37.6319L646.897 37.6078L646.025 39.4078L646.075 39.4319L646.947 37.6319ZM650.632 42.5125C649.509 41.9683 648.634 41.24 648.09 40.5136C647.531 39.7672 647.402 39.1435 647.488 38.7439L645.534 38.3198C645.277 39.504 645.743 40.7166 646.489 41.7126C647.25 42.7285 648.39 43.6487 649.761 44.3124L650.632 42.5125ZM655.538 42.6432C655.279 42.9589 654.709 43.2441 653.777 43.2681C652.869 43.2915 651.756 43.0567 650.632 42.5125L649.761 44.3124C651.131 44.9762 652.559 45.3001 653.828 45.2674C655.072 45.2354 656.313 44.8496 657.083 43.9139L655.538 42.6432ZM656.797 42.403L656.747 42.3786L655.875 44.1785L655.925 44.203L656.797 42.403ZM659.914 33.6744L655.461 42.8671L657.261 43.7389L661.714 34.5463L659.914 33.6744Z" fill="#142251" fill-opacity="0.44" mask="url(#path-4-inside-1_0_2946)"/>
<ellipse cx="658.263" cy="26.763" rx="9.5" ry="7.5" transform="rotate(25.8444 658.263 26.763)" fill="#AFB4C4"/>
<path d="M666.363 30.6864C664.722 34.0724 659.79 35.2805 655.211 33.0629C650.633 30.8452 648.523 26.2256 650.163 22.8397C651.803 19.4537 656.736 18.2455 661.314 20.4631C665.893 22.6808 668.003 27.3004 666.363 30.6864Z" stroke="#142251" stroke-opacity="0.44"/>
<ellipse cx="655.549" cy="24.3373" rx="4" ry="3.5" transform="rotate(25.8444 655.549 24.3373)" fill="#E4E7F1"/>
<rect x="646.668" y="47.2585" width="2" height="13" transform="rotate(25.8444 646.668 47.2585)" fill="#9DA7CA"/>
<circle cx="999" cy="221" r="4" fill="#142251"/>
<ellipse cx="1008.5" cy="202.713" rx="11.5" ry="8" transform="rotate(25.8444 1008.5 202.713)" fill="#AFB4C4"/>
<path d="M1018.4 207.508C1017.53 209.308 1015.67 210.477 1013.28 210.855C1010.89 211.233 1008.01 210.808 1005.24 209.463C1002.46 208.117 1000.34 206.125 999.156 204.014C997.969 201.902 997.733 199.717 998.605 197.918C999.477 196.118 1001.34 194.949 1003.73 194.571C1006.12 194.193 1009 194.618 1011.77 195.963C1014.55 197.308 1016.67 199.301 1017.85 201.412C1019.04 203.524 1019.28 205.708 1018.4 207.508Z" stroke="#142251" stroke-opacity="0.44"/>
<mask id="path-13-inside-2_0_2946" fill="white">
<path fill-rule="evenodd" clip-rule="evenodd" d="M1017.81 196.11L1007.91 191.315L1003.68 200.054C1003.68 200.066 1003.67 200.078 1003.66 200.09C1003.66 200.102 1003.65 200.114 1003.65 200.126L1003.46 200.508L1003.51 200.532C1003.17 202.116 1004.7 204.205 1007.2 205.412C1009.69 206.62 1012.28 206.53 1013.31 205.279L1013.36 205.303L1017.81 196.11Z"/>
</mask>
<path fill-rule="evenodd" clip-rule="evenodd" d="M1017.81 196.11L1007.91 191.315L1003.68 200.054C1003.68 200.066 1003.67 200.078 1003.66 200.09C1003.66 200.102 1003.65 200.114 1003.65 200.126L1003.46 200.508L1003.51 200.532C1003.17 202.116 1004.7 204.205 1007.2 205.412C1009.69 206.62 1012.28 206.53 1013.31 205.279L1013.36 205.303L1017.81 196.11Z" fill="#AFB4C4"/>
<path d="M1007.91 191.315L1008.35 190.415L1007.45 189.979L1007.01 190.879L1007.91 191.315ZM1017.81 196.11L1018.71 196.546L1019.15 195.646L1018.25 195.21L1017.81 196.11ZM1003.68 200.054L1004.57 200.508L1004.58 200.499L1004.58 200.49L1003.68 200.054ZM1003.65 200.126L1004.55 200.562L1004.55 200.553L1004.55 200.544L1003.65 200.126ZM1003.46 200.508L1002.56 200.072L1002.13 200.972L1003.03 201.408L1003.46 200.508ZM1003.51 200.532L1004.49 200.744L1004.66 199.975L1003.95 199.632L1003.51 200.532ZM1013.31 205.279L1013.75 204.379L1013.04 204.036L1012.54 204.643L1013.31 205.279ZM1013.36 205.303L1012.93 206.203L1013.83 206.639L1014.26 205.739L1013.36 205.303ZM1007.48 192.215L1017.38 197.01L1018.25 195.21L1008.35 190.415L1007.48 192.215ZM1004.58 200.49L1008.81 191.751L1007.01 190.879L1002.78 199.618L1004.58 200.49ZM1004.56 200.526C1004.57 200.52 1004.57 200.514 1004.57 200.508L1002.79 199.599C1002.78 199.617 1002.77 199.636 1002.76 199.654L1004.56 200.526ZM1004.55 200.544C1004.56 200.538 1004.56 200.532 1004.56 200.526L1002.76 199.654C1002.75 199.672 1002.75 199.691 1002.74 199.709L1004.55 200.544ZM1004.36 200.944L1004.55 200.562L1002.75 199.69L1002.56 200.072L1004.36 200.944ZM1003.95 199.632L1003.9 199.608L1003.03 201.408L1003.08 201.432L1003.95 199.632ZM1007.63 204.512C1006.51 203.968 1005.63 203.24 1005.09 202.514C1004.53 201.767 1004.4 201.143 1004.49 200.744L1002.53 200.32C1002.28 201.504 1002.74 202.717 1003.49 203.713C1004.25 204.729 1005.39 205.649 1006.76 206.312L1007.63 204.512ZM1012.54 204.643C1012.28 204.959 1011.71 205.244 1010.78 205.268C1009.87 205.291 1008.76 205.057 1007.63 204.512L1006.76 206.312C1008.13 206.976 1009.56 207.3 1010.83 207.267C1012.07 207.235 1013.31 206.85 1014.08 205.914L1012.54 204.643ZM1013.8 204.403L1013.75 204.379L1012.87 206.179L1012.93 206.203L1013.8 204.403ZM1016.91 195.674L1012.46 204.867L1014.26 205.739L1018.71 196.546L1016.91 195.674Z" fill="#142251" fill-opacity="0.44" mask="url(#path-13-inside-2_0_2946)"/>
<ellipse cx="1015.26" cy="188.763" rx="9.5" ry="7.5" transform="rotate(25.8444 1015.26 188.763)" fill="#AFB4C4"/>
<path d="M1023.36 192.686C1021.72 196.072 1016.79 197.281 1012.21 195.063C1007.63 192.845 1005.52 188.226 1007.16 184.84C1008.8 181.454 1013.74 180.245 1018.31 182.463C1022.89 184.681 1025 189.3 1023.36 192.686Z" stroke="#142251" stroke-opacity="0.44"/>
<ellipse cx="1012.55" cy="186.337" rx="4" ry="3.5" transform="rotate(25.8444 1012.55 186.337)" fill="#E4E7F1"/>
<rect x="1003.67" y="209.259" width="2" height="13" transform="rotate(25.8444 1003.67 209.259)" fill="#9DA7CA"/>
<circle cx="1300" cy="100" r="4" fill="#142251"/>
<ellipse cx="1309.5" cy="81.7128" rx="11.5" ry="8" transform="rotate(25.8444 1309.5 81.7128)" fill="#AFB4C4"/>
<path d="M1319.4 86.508C1318.53 88.3078 1316.67 89.4766 1314.28 89.8548C1311.89 90.2327 1309.01 89.808 1306.24 88.4626C1303.46 87.1172 1301.34 85.1247 1300.16 83.0141C1298.97 80.9015 1298.73 78.7173 1299.61 76.9176C1300.48 75.1178 1302.34 73.949 1304.73 73.5707C1307.12 73.1928 1310 73.6175 1312.77 74.9629C1315.55 76.3083 1317.67 78.3009 1318.85 80.4115C1320.04 82.524 1320.28 84.7082 1319.4 86.508Z" stroke="#142251" stroke-opacity="0.44"/>
<mask id="path-22-inside-3_0_2946" fill="white">
<path fill-rule="evenodd" clip-rule="evenodd" d="M1318.81 75.1103L1308.91 70.3151L1304.68 79.0538C1304.68 79.0657 1304.67 79.0778 1304.66 79.0899C1304.66 79.102 1304.65 79.1142 1304.65 79.1264L1304.46 79.5078L1304.51 79.5319C1304.17 81.1156 1305.7 83.2045 1308.2 84.4125C1310.69 85.6204 1313.28 85.53 1314.31 84.2786L1314.36 84.303L1318.81 75.1103Z"/>
</mask>
<path fill-rule="evenodd" clip-rule="evenodd" d="M1318.81 75.1103L1308.91 70.3151L1304.68 79.0538C1304.68 79.0657 1304.67 79.0778 1304.66 79.0899C1304.66 79.102 1304.65 79.1142 1304.65 79.1264L1304.46 79.5078L1304.51 79.5319C1304.17 81.1156 1305.7 83.2045 1308.2 84.4125C1310.69 85.6204 1313.28 85.53 1314.31 84.2786L1314.36 84.303L1318.81 75.1103Z" fill="#AFB4C4"/>
<path d="M1308.91 70.3151L1309.35 69.4151L1308.45 68.9792L1308.01 69.8792L1308.91 70.3151ZM1318.81 75.1103L1319.71 75.5463L1320.15 74.6463L1319.25 74.2104L1318.81 75.1103ZM1304.68 79.0538L1305.57 79.5081L1305.58 79.499L1305.58 79.4897L1304.68 79.0538ZM1304.65 79.1264L1305.55 79.5623L1305.55 79.5531L1305.55 79.5437L1304.65 79.1264ZM1304.46 79.5078L1303.56 79.0719L1303.13 79.9718L1304.03 80.4078L1304.46 79.5078ZM1304.51 79.5319L1305.49 79.7439L1305.66 78.9749L1304.95 78.6319L1304.51 79.5319ZM1314.31 84.2786L1314.75 83.3786L1314.04 83.0356L1313.54 83.6432L1314.31 84.2786ZM1314.36 84.303L1313.93 85.203L1314.83 85.6389L1315.26 84.7389L1314.36 84.303ZM1308.48 71.2151L1318.38 76.0103L1319.25 74.2104L1309.35 69.4151L1308.48 71.2151ZM1305.58 79.4897L1309.81 70.7511L1308.01 69.8792L1303.78 78.6178L1305.58 79.4897ZM1305.56 79.5258C1305.57 79.5199 1305.57 79.514 1305.57 79.5081L1303.79 78.5994C1303.78 78.6175 1303.77 78.6357 1303.76 78.654L1305.56 79.5258ZM1305.55 79.5437C1305.56 79.5378 1305.56 79.5318 1305.56 79.5258L1303.76 78.654C1303.75 78.6723 1303.75 78.6907 1303.74 78.7091L1305.55 79.5437ZM1305.36 79.9437L1305.55 79.5623L1303.75 78.6905L1303.56 79.0719L1305.36 79.9437ZM1304.95 78.6319L1304.9 78.6078L1304.03 80.4078L1304.08 80.4319L1304.95 78.6319ZM1308.63 83.5125C1307.51 82.9683 1306.63 82.24 1306.09 81.5136C1305.53 80.7672 1305.4 80.1435 1305.49 79.7439L1303.53 79.3198C1303.28 80.504 1303.74 81.7166 1304.49 82.7126C1305.25 83.7285 1306.39 84.6487 1307.76 85.3124L1308.63 83.5125ZM1313.54 83.6432C1313.28 83.9589 1312.71 84.2441 1311.78 84.2681C1310.87 84.2915 1309.76 84.0567 1308.63 83.5125L1307.76 85.3124C1309.13 85.9762 1310.56 86.3001 1311.83 86.2674C1313.07 86.2354 1314.31 85.8496 1315.08 84.9139L1313.54 83.6432ZM1314.8 83.403L1314.75 83.3786L1313.87 85.1785L1313.93 85.203L1314.8 83.403ZM1317.91 74.6744L1313.46 83.8671L1315.26 84.7389L1319.71 75.5463L1317.91 74.6744Z" fill="#142251" fill-opacity="0.44" mask="url(#path-22-inside-3_0_2946)"/>
<ellipse cx="1316.26" cy="67.763" rx="9.5" ry="7.5" transform="rotate(25.8444 1316.26 67.763)" fill="#AFB4C4"/>
<path d="M1324.36 71.6864C1322.72 75.0724 1317.79 76.2805 1313.21 74.0629C1308.63 71.8452 1306.52 67.2256 1308.16 63.8397C1309.8 60.4537 1314.74 59.2455 1319.31 61.4631C1323.89 63.6808 1326 68.3004 1324.36 71.6864Z" stroke="#142251" stroke-opacity="0.44"/>
<ellipse cx="1313.55" cy="65.3372" rx="4" ry="3.5" transform="rotate(25.8444 1313.55 65.3372)" fill="#E4E7F1"/>
<rect x="1304.67" y="88.2585" width="2" height="13" transform="rotate(25.8444 1304.67 88.2585)" fill="#9DA7CA"/>
<g opacity="0.44">
<path d="M9.99998 45L642 60.5L998 221.5" stroke="#142251"/>
<path d="M998.5 221.5L1300 100" stroke="#142251"/>
</g>
<circle cx="9.99998" cy="44" r="4" fill="#142251"/>
<ellipse cx="19.5048" cy="25.7128" rx="11.5" ry="8" transform="rotate(25.8444 19.5048 25.7128)" fill="#AFB4C4"/>
<path d="M29.4046 30.508C28.5329 32.3078 26.6727 33.4766 24.2792 33.8548C21.8879 34.2327 19.013 33.808 16.2354 32.4626C13.4578 31.1172 11.3423 29.1247 10.1563 27.0141C8.96934 24.9015 8.73327 22.7173 9.60503 20.9176C10.4768 19.1178 12.337 17.949 14.7305 17.5707C17.1218 17.1928 19.9967 17.6175 22.7743 18.9629C25.5519 20.3083 27.6674 22.3009 28.8533 24.4115C30.0403 26.524 30.2764 28.7082 29.4046 30.508Z" stroke="#142251" stroke-opacity="0.44"/>
<mask id="path-33-inside-4_0_2946" fill="white">
<path fill-rule="evenodd" clip-rule="evenodd" d="M28.8138 19.1103L18.914 14.3151L14.6813 23.0538C14.6751 23.0657 14.6692 23.0778 14.6633 23.0899C14.6574 23.102 14.6517 23.1142 14.6461 23.1264L14.4613 23.5078L14.5111 23.5319C14.1674 25.1156 15.7027 27.2045 18.1964 28.4125C20.6902 29.6204 23.281 29.53 24.3107 28.2786L24.3611 28.303L28.8138 19.1103Z"/>
</mask>
<path fill-rule="evenodd" clip-rule="evenodd" d="M28.8138 19.1103L18.914 14.3151L14.6813 23.0538C14.6751 23.0657 14.6692 23.0778 14.6633 23.0899C14.6574 23.102 14.6517 23.1142 14.6461 23.1264L14.4613 23.5078L14.5111 23.5319C14.1674 25.1156 15.7027 27.2045 18.1964 28.4125C20.6902 29.6204 23.281 29.53 24.3107 28.2786L24.3611 28.303L28.8138 19.1103Z" fill="#AFB4C4"/>
<path d="M18.914 14.3151L19.35 13.4151L18.45 12.9792L18.0141 13.8792L18.914 14.3151ZM28.8138 19.1103L29.7138 19.5463L30.1497 18.6463L29.2498 18.2104L28.8138 19.1103ZM14.6813 23.0538L15.5721 23.5081L15.5767 23.499L15.5812 23.4897L14.6813 23.0538ZM14.6461 23.1264L15.546 23.5623L15.5505 23.5531L15.5548 23.5437L14.6461 23.1264ZM14.4613 23.5078L13.5614 23.0719L13.1254 23.9718L14.0254 24.4078L14.4613 23.5078ZM14.5111 23.5319L15.4883 23.7439L15.6552 22.9749L14.947 22.6319L14.5111 23.5319ZM24.3107 28.2786L24.7466 27.3786L24.0384 27.0356L23.5385 27.6432L24.3107 28.2786ZM24.3611 28.303L23.9252 29.203L24.8252 29.6389L25.2611 28.7389L24.3611 28.303ZM18.4781 15.2151L28.3779 20.0103L29.2498 18.2104L19.35 13.4151L18.4781 15.2151ZM15.5812 23.4897L19.814 14.7511L18.0141 13.8792L13.7813 22.6178L15.5812 23.4897ZM15.5633 23.5258C15.5661 23.5199 15.5691 23.514 15.5721 23.5081L13.7904 22.5994C13.7812 22.6175 13.7722 22.6357 13.7633 22.654L15.5633 23.5258ZM15.5548 23.5437C15.5576 23.5378 15.5604 23.5318 15.5633 23.5258L13.7633 22.654C13.7544 22.6723 13.7458 22.6907 13.7373 22.7091L15.5548 23.5437ZM15.3613 23.9437L15.546 23.5623L13.7461 22.6905L13.5614 23.0719L15.3613 23.9437ZM14.947 22.6319L14.8973 22.6078L14.0254 24.4078L14.0751 24.4319L14.947 22.6319ZM18.6323 27.5125C17.5089 26.9683 16.6342 26.24 16.0901 25.5136C15.531 24.7672 15.4016 24.1435 15.4883 23.7439L13.5338 23.3198C13.2769 24.504 13.7433 25.7166 14.4894 26.7126C15.2503 27.7285 16.3902 28.6487 17.7605 29.3124L18.6323 27.5125ZM23.5385 27.6432C23.2787 27.9589 22.7091 28.2441 21.7768 28.2681C20.8695 28.2915 19.7558 28.0567 18.6323 27.5125L17.7605 29.3124C19.1308 29.9762 20.5594 30.3001 21.8284 30.2674C23.0724 30.2354 24.313 29.8496 25.0829 28.9139L23.5385 27.6432ZM24.7971 27.403L24.7466 27.3786L23.8747 29.1785L23.9252 29.203L24.7971 27.403ZM27.9139 18.6744L23.4612 27.8671L25.2611 28.7389L29.7138 19.5463L27.9139 18.6744Z" fill="#142251" fill-opacity="0.44" mask="url(#path-33-inside-4_0_2946)"/>
<ellipse cx="26.2627" cy="11.763" rx="9.5" ry="7.5" transform="rotate(25.8444 26.2627 11.763)" fill="#AFB4C4"/>
<path d="M34.3625 15.6864C32.7224 19.0724 27.7896 20.2805 23.2112 18.0629C18.6328 15.8452 16.5228 11.2256 18.1629 7.83965C19.8029 4.45366 24.7358 3.24549 29.3142 5.46314C33.8926 7.68078 36.0026 12.3004 34.3625 15.6864Z" stroke="#142251" stroke-opacity="0.44"/>
<g filter="url(#filter0_f_0_2946)">
<ellipse cx="23.5487" cy="9.33725" rx="4" ry="3.5" transform="rotate(25.8444 23.5487 9.33725)" fill="#E4E7F1"/>
</g>
<rect x="14.6679" y="32.2585" width="2" height="13" transform="rotate(25.8444 14.6679 32.2585)" fill="#9DA7CA"/>
<defs>
<filter id="filter0_f_0_2946" x="15.6378" y="1.73633" width="15.8218" height="15.2019" filterUnits="userSpaceOnUse" color-interpolation-filters="sRGB">
<feFlood flood-opacity="0" result="BackgroundImageFix"/>
<feBlend mode="normal" in="SourceGraphic" in2="BackgroundImageFix" result="shape"/>
<feGaussianBlur stdDeviation="2" result="effect1_foregroundBlur_0_2946"/>
</filter>
</defs>
</svg>
