<svg width="48" height="48" viewBox="0 0 48 48" fill="none" xmlns="http://www.w3.org/2000/svg">
<path d="M24 8C19.5817 8 16 11.5817 16 16C16 20.4183 19.5817 24 24 24C28.4183 24 32 20.4183 32 16C32 11.5817 28.4183 8 24 8ZM12 16C12 9.37258 17.3726 4 24 4C30.6274 4 36 9.37258 36 16C36 22.6274 30.6274 28 24 28C17.3726 28 12 22.6274 12 16ZM16 36C12.6863 36 10 38.6863 10 42C10 43.1046 9.10457 44 8 44C6.89543 44 6 43.1046 6 42C6 36.4771 10.4772 32 16 32H32C37.5228 32 42 36.4771 42 42C42 43.1046 41.1046 44 40 44C38.8954 44 38 43.1046 38 42C38 38.6863 35.3137 36 32 36H16Z" fill="#142251"/>
</svg>
