<svg width="24" height="26" viewBox="0 0 24 26" fill="none" xmlns="http://www.w3.org/2000/svg">
<path fill-rule="evenodd" clip-rule="evenodd" d="M12.0453 24.8506H12.0502C18.6388 24.8479 23.9974 19.488 24 12.9009C24.0013 9.70795 22.7594 6.70565 20.5033 4.447C18.2472 2.18823 15.2468 0.943762 12.0501 0.942383C5.4635 0.942383 0.102809 6.30279 0.100188 12.8914C0.099291 14.9976 0.649554 17.0533 1.69529 18.8655L0 25.0578L6.33478 23.3961C8.08018 24.3481 10.0453 24.8499 12.0453 24.8506ZM17.6619 15.4735C17.8701 15.5741 18.0107 15.6421 18.0708 15.7423C18.1454 15.8668 18.1454 16.4647 17.8967 17.1622C17.6478 17.8597 16.4549 18.4962 15.8812 18.5819C15.3668 18.6589 14.7159 18.6909 14.0006 18.4636C13.5669 18.326 13.0108 18.1423 12.2984 17.8347C9.49924 16.626 7.60757 13.913 7.25005 13.4002C7.22501 13.3643 7.20749 13.3392 7.19772 13.3261L7.19531 13.3229C7.0373 13.1121 5.97852 11.6994 5.97852 10.2374C5.97852 8.862 6.65412 8.14111 6.9651 7.80928C6.9864 7.78654 7.00599 7.76563 7.02354 7.74647C7.29723 7.44754 7.62073 7.3728 7.81977 7.3728C8.0188 7.3728 8.21807 7.37464 8.39204 7.38338C8.4135 7.38446 8.43583 7.38433 8.45891 7.38419C8.63291 7.38317 8.84984 7.3819 9.06384 7.89593C9.14616 8.09375 9.26662 8.38701 9.39367 8.69631C9.6506 9.32183 9.93448 10.013 9.98443 10.113C10.0591 10.2624 10.1088 10.4367 10.0093 10.6361C9.99438 10.666 9.98056 10.6942 9.96736 10.7212C9.89261 10.8738 9.83762 10.986 9.71075 11.1342C9.66086 11.1924 9.60929 11.2552 9.55773 11.318C9.45501 11.4431 9.3523 11.5682 9.26286 11.6573C9.11338 11.8062 8.95777 11.9677 9.13195 12.2666C9.30612 12.5656 9.90536 13.5433 10.793 14.3351C11.7472 15.1862 12.5765 15.5459 12.9968 15.7282C13.0789 15.7638 13.1454 15.7927 13.1942 15.8171C13.4927 15.9666 13.6668 15.9416 13.841 15.7423C14.0152 15.5431 14.5874 14.8704 14.7865 14.5716C14.9855 14.2728 15.1846 14.3225 15.4582 14.4221C15.732 14.5219 17.2 15.2441 17.4986 15.3936C17.5568 15.4227 17.6113 15.4491 17.6619 15.4735Z" fill="#213887"/>
</svg>
